<svg width="48" height="48" viewBox="0 0 48 48" fill="none" xmlns="http://www.w3.org/2000/svg">
<path d="M28.351 8.44449C28.3533 5.98891 23.3461 4 17.1766 4C11.0071 4 6.00447 5.99113 6 8.44449M6 8.44449C6 10.9001 11.0027 12.889 17.1766 12.889C23.3506 12.889 28.3533 10.9001 28.3533 8.44449L28.3533 25.689M6 8.44449V35.1113C6.00224 37.5669 11.0049 39.5558 17.1766 39.5558C20.1697 39.5558 22.8722 39.0824 24.8773 38.3202M6.00224 17.3334C6.00224 19.789 11.0049 21.7779 17.1789 21.7779C23.3529 21.7779 28.3555 19.789 28.3555 17.3334M25.0115 29.3892C22.9952 30.1781 20.2301 30.667 17.1766 30.667C11.0049 30.667 6.00224 28.6781 6.00224 26.2225M41.0544 26.9293C44.9819 30.8338 44.9819 37.1672 41.0544 41.0716C37.1269 44.9761 30.7562 44.9761 26.8288 41.0716C22.9013 37.1672 22.9013 30.8338 26.8288 26.9293C30.7562 23.0248 37.1269 23.0248 41.0544 26.9293Z" stroke="#1F4E79" stroke-width="3" stroke-linecap="round" stroke-linejoin="round"/>
</svg>
